# xmcd
#
# Track frame offsets:
#	150
#	20167
#	38957
#	53125
#	74765
#	101525
#	125140
#	141712
#	161362
#	180100
#	191667
#
# Disc length: 2696 seconds
#
# Revision: 2
# Processed by: cddbd v1.5.2PL0 Copyright (c) Steve Scherf et al.
# Submitted via: audiograbber 1.83.01
#
DISCID=a40a860b
DTITLE=Машина Времени - Внештатный КомандирЪ Земли. Блюзы Эль-Мокамбо
DYEAR=1993
DGENRE=Rock
TTITLE0=Дорога в небо
TTITLE1=Этот вечный блюз
TTITLE2=Когда я был большим
TTITLE3=Дальше и дальше
TTITLE4=Рождественская песня
TTITLE5=Внештатный командир Земли
TTITLE6=Знаю только я
TTITLE7=На семи ветрах
TTITLE8=Мой друг (Лучше всех играет блюз)
TTITLE9=Колыбельная
TTITLE10=Когда мы уйдём
EXTD=
EXTT0=
EXTT1=
EXTT2=
EXTT3=
EXTT4=
EXTT5=
EXTT6=
EXTT7=
EXTT8=
EXTT9=
EXTT10=
PLAYORDER=
